HIERARCHY
ROOT Hips
{
	OFFSET 0.00000 0.00000 0.00000
	CHANNELS 6 Xposition Yposition Zposition Zrotation Yrotation Xrotation 
	JOINT LHipJoint
	{
		OFFSET 0 0 0
		CHANNELS 3 Zrotation Yrotation Xrotation
		JOINT LeftUpLeg
		{
			OFFSET 1.56857 -1.73443 1.15205
			CHANNELS 3 Zrotation Yrotation Xrotation
			JOINT LeftLeg
			{
				OFFSET 2.39362 -6.57643 0.00000
				CHANNELS 3 Zrotation Yrotation Xrotation
				JOINT LeftFoot
				{
					OFFSET 2.50952 -6.89485 0.00000
					CHANNELS 3 Zrotation Yrotation Xrotation
					JOINT LeftToeBase
					{
						OFFSET 0.17171 -0.47178 1.88682
						CHANNELS 3 Zrotation Yrotation Xrotation
						End Site
						{
							OFFSET 0.00000 -0.00000 0.98146
						}
					}
				}
			}
		}
	}
	JOINT RHipJoint
	{
		OFFSET 0 0 0
		CHANNELS 3 Zrotation Yrotation Xrotation
		JOINT RightUpLeg
		{
			OFFSET -1.28153 -1.73443 1.15205
			CHANNELS 3 Zrotation Yrotation Xrotation
			JOINT RightLeg
			{
				OFFSET -2.26861 -6.23296 0.00000
				CHANNELS 3 Zrotation Yrotation Xrotation
				JOINT RightFoot
				{
					OFFSET -2.54143 -6.98254 0.00000
					CHANNELS 3 Zrotation Yrotation Xrotation
					JOINT RightToeBase
					{
						OFFSET -0.23309 -0.64041 1.93119
						CHANNELS 3 Zrotation Yrotation Xrotation
						End Site
						{
							OFFSET -0.00000 -0.00000 1.02013
						}
					}
				}
			}
		}
	}
	JOINT LowerBack
	{
		OFFSET 0 0 0
		CHANNELS 3 Zrotation Yrotation Xrotation
		JOINT Spine
		{
			OFFSET -0.07096 2.10460 -0.27878
			CHANNELS 3 Zrotation Yrotation Xrotation
			JOINT Spine1
			{
				OFFSET -0.00826 2.13662 -0.08279
				CHANNELS 3 Zrotation Yrotation Xrotation
				JOINT Neck
				{
					OFFSET 0 0 0
					CHANNELS 3 Zrotation Yrotation Xrotation
					JOINT Neck1
					{
						OFFSET 0.03239 1.77799 0.24435
						CHANNELS 3 Zrotation Yrotation Xrotation
						JOINT Head
						{
							OFFSET 0.01026 1.74194 -0.49664
							CHANNELS 3 Zrotation Yrotation Xrotation
							End Site
							{
								OFFSET 0.00170 1.83057 -0.19653
							}
						}
					}
				}
				JOINT LeftShoulder
				{
					OFFSET 0 0 0
					CHANNELS 3 Zrotation Yrotation Xrotation
					JOINT LeftArm
					{
						OFFSET 3.19178 1.35907 -0.31412
						CHANNELS 3 Zrotation Yrotation Xrotation
						JOINT LeftForeArm
						{
							OFFSET 4.85247 -0.00000 -0.00000
							CHANNELS 3 Zrotation Yrotation Xrotation
							JOINT LeftHand
							{
								OFFSET 3.55584 -0.00000 0.00000
								CHANNELS 3 Zrotation Yrotation Xrotation
								JOINT LeftFingerBase
								{
									OFFSET 0 0 0
									CHANNELS 3 Zrotation Yrotation Xrotation
									JOINT LeftHandIndex1
									{
										OFFSET 0.69320 -0.00000 0.00000
										CHANNELS 3 Zrotation Yrotation Xrotation
										End Site
										{
											OFFSET 0.55888 -0.00000 0.00000
										}
									}
								}
								JOINT LThumb
								{
									OFFSET 0 0 0
									CHANNELS 3 Zrotation Yrotation Xrotation
									End Site
									{
										OFFSET 0.56741 -0.00000 0.56741
									}
								}
							}
						}
					}
				}
				JOINT RightShoulder
				{
					OFFSET 0 0 0
					CHANNELS 3 Zrotation Yrotation Xrotation
					JOINT RightArm
					{
						OFFSET -3.28999 1.24191 -0.26899
						CHANNELS 3 Zrotation Yrotation Xrotation
						JOINT RightForeArm
						{
							OFFSET -4.64462 -0.00000 0.00000
							CHANNELS 3 Zrotation Yrotation Xrotation
							JOINT RightHand
							{
								OFFSET -3.40703 -0.00000 0.00000
								CHANNELS 3 Zrotation Yrotation Xrotation
								JOINT RightFingerBase
								{
									OFFSET 0 0 0
									CHANNELS 3 Zrotation Yrotation Xrotation
									JOINT RightHandIndex1
									{
										OFFSET -0.61958 -0.00000 0.00000
										CHANNELS 3 Zrotation Yrotation Xrotation
										End Site
										{
											OFFSET -0.49952 -0.00000 0.00000
										}
									}
								}
								JOINT RThumb
								{
									OFFSET 0 0 0
									CHANNELS 3 Zrotation Yrotation Xrotation
									End Site
									{
										OFFSET -0.50715 -0.00000 0.50715
									}
								}
							}
						}
					}
				}
			}
		}
	}
}
MOTION
Frames: 10
Frame Time: .0083333
0.1035 16.8825 -1.1727 251.2290 101.9850 249.4840 0.0000 0.0000 0.0000 -35.2666 5.5897 10.4908 0.2198 3.0182 8.3294 0.9698 -6.2417 -17.5687 0.0817 -1.8434 -5.0731 0.0000 0.0000 0.0000 4.8911 1.5901 -26.3643 -2.0077 -8.8821 25.4273 -0.4048 -2.6962 -13.3112 -0.3399 -3.7466 10.3649 -14.0137 1.0788 5.7407 -3.4672 1.6804 7.7920 4.1223 0.3982 4.8832 3.8243 1.6880 -22.0532 -0.2315 1.1746 19.6587 -0.5319 0.8301 9.9175 0.0000 0.0000 0.0000 -81.6960 -15.0447 50.0205 19.5403 -30.0845 -5.2990 -0.0000 0.0000 -1.7597 20.3893 -24.3618 -8.7166 -7.1250 0.0000 -0.0000 -5.5109 4.2976 5.1066 0.0000 0.0000 0.0000 84.2156 0.0488 39.4571 -20.2655 30.9609 -5.6673 0.0000 -0.0000 -7.7515 -12.4905 -32.3135 6.7532 7.1250 -0.0000 -0.0000 23.2137 -61.4095 -9.5619
0.2347 16.8602 -1.1799 252.3280 101.9960 250.8280 0.0000 0.0000 0.0000 -35.3351 5.7248 10.7308 0.2193 3.0148 8.3199 0.9875 -6.5658 -17.7316 0.1135 -2.1721 -5.9816 0.0000 0.0000 0.0000 4.8106 1.5372 -26.3070 -1.6269 -8.0414 22.8399 -0.3993 -2.4199 -13.0692 -0.3176 -3.6226 10.0174 -14.0435 0.9530 5.8236 -3.4049 1.4622 7.6086 4.2082 0.3013 4.6701 3.8360 1.7348 -22.3613 0.1028 1.1389 19.8157 -0.4187 0.8577 10.0275 -0.0000 -0.0000 0.0000 -81.6934 -14.9354 50.2290 19.5346 -30.0776 -5.2961 -0.0000 0.0000 -1.8565 20.8438 -24.7562 -9.0589 -7.1250 0.0000 -0.0000 -5.2710 3.8124 4.9301 -0.0000 -0.0000 0.0000 84.1136 -0.2736 39.2369 -20.3443 31.0549 -5.7079 0.0000 -0.0000 -7.7677 -12.3861 -32.3047 6.6939 7.1250 -0.0000 -0.0000 23.3165 -61.3760 -9.5883
0.3700 16.8398 -1.1858 253.2340 102.1020 251.9920 0.0000 0.0000 0.0000 -35.4344 5.9754 10.9697 0.2129 2.9703 8.1960 0.9983 -6.9910 -17.8373 0.1356 -2.3737 -6.5396 0.0000 0.0000 0.0000 4.6177 1.6008 -26.2258 -1.2904 -7.1976 20.3022 -0.4017 -2.0294 -12.8866 -0.2755 -3.3763 9.3282 -14.3951 0.7649 5.1393 -3.1626 1.3554 7.8770 4.6686 0.1669 5.3763 3.5893 1.7780 -22.6892 0.3496 1.2004 19.4745 -0.2811 0.8900 9.9619 0.0000 -0.0000 0.0000 -82.0012 -15.4902 50.2775 19.5404 -30.0846 -5.2990 -0.0000 0.0000 -1.9298 21.0688 -24.8400 -9.1927 -7.1250 0.0000 -0.0000 -5.1419 3.6865 4.8205 0.0000 -0.0000 0.0000 83.6256 0.1544 39.1771 -20.3187 31.0244 -5.6947 0.0000 -0.0000 -7.8369 -12.4718 -32.0326 6.6910 7.1250 -0.0000 -0.0000 22.9862 -61.1499 -9.3205
0.5036 16.8154 -1.1862 254.3840 102.3850 253.4360 0.0000 0.0000 0.0000 -35.6943 6.2149 11.0852 0.2124 2.9670 8.1868 1.0122 -7.5320 -17.9830 0.1383 -2.3970 -6.6043 0.0000 0.0000 0.0000 4.1199 1.9735 -26.1677 -1.0165 -6.4143 17.9914 -0.4147 -1.5378 -12.8216 -0.1498 -2.4944 6.8740 -14.5752 0.7483 5.0532 -3.2301 1.3216 7.6923 4.6967 0.1571 5.2316 3.4859 1.6423 -22.5862 0.8266 0.9405 19.3218 -0.1356 0.8198 9.8829 -0.0000 -0.0000 0.0000 -81.9259 -15.3736 50.7523 19.6112 -30.1711 -5.3346 -0.0000 0.0000 -1.9918 20.9773 -24.8631 -9.1576 -7.1250 0.0000 -0.0000 -5.2002 3.6785 4.8763 -0.0000 -0.0000 0.0000 83.7108 -0.1955 38.7284 -20.2297 30.9181 -5.6489 0.0000 -0.0000 -7.8854 -12.4916 -31.8394 6.6660 7.1250 -0.0000 -0.0000 22.7978 -60.9789 -9.1465
0.6387 16.7870 -1.1865 255.8000 102.5340 255.1200 0.0000 0.0000 0.0000 -35.9244 6.1833 11.3256 0.2163 2.9938 8.2614 1.0476 -7.9037 -18.3134 0.1570 -2.5530 -7.0365 0.0000 0.0000 0.0000 3.6871 2.3572 -26.0632 -0.7922 -5.6814 15.8628 -0.4299 -0.8789 -12.7356 -0.0471 -1.4006 3.8516 -14.6482 0.6981 4.9929 -3.2736 1.2439 7.5421 4.6921 0.1276 5.1163 3.6052 1.5475 -22.5570 1.1174 0.7042 19.1993 -0.0882 0.7545 9.8319 0.0000 0.0000 0.0000 -81.8594 -15.3065 51.1252 19.5863 -30.1407 -5.3221 -0.0000 0.0000 -1.8345 21.0974 -25.1224 -9.3024 -7.1250 0.0000 -0.0000 -5.1537 3.3890 4.8601 0.0000 0.0000 0.0000 83.8817 -0.5141 38.1902 -20.1430 30.8142 -5.6044 0.0000 -0.0000 -7.9184 -12.5636 -31.8420 6.7058 7.1250 -0.0000 -0.0000 22.7241 -60.9986 -9.1258
0.7782 16.7584 -1.1925 256.9010 102.5110 256.4740 0.0000 0.0000 0.0000 -36.0031 6.1158 11.6740 0.2138 2.9771 8.2150 1.0775 -8.3222 -18.5971 0.1473 -2.4734 -6.8158 0.0000 0.0000 0.0000 3.5145 2.5256 -26.0089 -0.6118 -5.0061 13.9261 -0.4012 -0.2355 -12.0535 -0.0429 -1.3374 3.6776 -14.4734 0.6474 4.9382 -3.2716 1.1642 7.4059 4.6014 0.1057 5.0070 3.7860 1.4851 -22.5311 1.3754 0.5016 19.0208 -0.0575 0.7038 9.7631 -0.0000 -0.0000 0.0000 -81.8402 -15.2296 51.4678 19.5494 -30.0956 -5.3035 -0.0000 0.0000 -1.7477 21.1607 -25.2799 -9.3862 -7.1250 0.0000 -0.0000 -5.1317 3.2146 4.8557 -0.0000 -0.0000 0.0000 84.0277 -0.8619 37.6554 -20.1542 30.8277 -5.6102 0.0000 -0.0000 -7.9663 -12.5896 -32.0677 6.7622 7.1250 -0.0000 -0.0000 22.8922 -61.2106 -9.3131
0.9169 16.7291 -1.2000 257.7520 102.7500 257.5680 0.0000 0.0000 0.0000 -36.2959 6.2515 11.9041 0.2126 2.9683 8.1906 1.0815 -8.9277 -18.6851 0.1157 -2.1927 -6.0384 0.0000 0.0000 0.0000 3.1148 2.5123 -26.1108 -0.4793 -4.4398 12.3173 -0.3417 0.3858 -10.9127 -0.1367 -2.3833 6.5662 -14.5800 0.5952 4.8146 -3.2949 1.1007 7.3013 4.6369 0.0739 4.9762 3.6899 1.4349 -22.3699 1.8540 0.3695 18.6436 0.1040 0.6866 9.6000 -0.0000 -0.0000 0.0000 -81.9284 -15.1841 51.5871 19.5239 -30.0645 -5.2908 -0.0000 0.0000 -1.6238 20.9624 -25.2827 -9.2924 -7.1250 0.0000 -0.0000 -5.2526 3.2469 4.9680 -0.0000 -0.0000 0.0000 84.0619 -1.1542 37.2201 -20.2116 30.8964 -5.6396 0.0000 -0.0000 -7.9942 -12.4111 -32.2076 6.6899 7.1250 -0.0000 -0.0000 23.2039 -61.2941 -9.4939
1.0585 16.7000 -1.2051 258.1560 103.0830 258.1530 0.0000 0.0000 0.0000 -36.6816 6.3960 12.1543 0.2189 3.0118 8.3115 1.0995 -9.2990 -18.8741 0.1172 -2.2070 -6.0782 0.0000 0.0000 0.0000 2.6803 2.4971 -26.2509 -0.3900 -4.0102 11.1055 -0.3147 1.2855 -10.2245 -0.2666 -3.3217 9.1757 -14.8496 0.5399 4.6585 -3.2681 1.0483 7.2784 4.8139 0.0287 5.0558 3.3797 1.4203 -22.3797 2.3894 0.3361 18.3049 0.3347 0.7063 9.4814 0.0000 0.0000 0.0000 -82.1976 -15.2120 51.4414 19.4532 -29.9780 -5.2554 -0.0000 0.0000 -1.2800 21.0535 -25.3796 -9.3687 -7.1250 0.0000 -0.0000 -5.2075 3.1305 4.9360 0.0000 0.0000 0.0000 84.0142 -1.3102 36.6915 -20.1633 30.8386 -5.6148 0.0000 -0.0000 -7.6322 -12.2731 -31.7602 6.5323 7.1250 -0.0000 -0.0000 22.9602 -60.8541 -9.1473
1.2026 16.6699 -1.2054 258.5430 103.2390 258.7570 0.0000 0.0000 0.0000 -36.8630 6.4373 12.3766 0.2321 3.1011 8.5603 1.1303 -9.6501 -19.1658 0.1195 -2.2290 -6.1389 0.0000 0.0000 0.0000 2.4412 2.6069 -26.4557 -0.3349 -3.7192 10.2880 -0.3338 2.3742 -10.3495 -0.2585 -3.2709 9.0339 -14.9718 0.5031 4.4443 -3.1970 1.0310 7.2688 4.9582 0.0023 5.1723 3.3983 1.4141 -22.6455 2.6082 0.2595 18.2432 0.3988 0.6990 9.5073 0.0000 0.0000 0.0000 -82.4193 -15.2586 51.5181 19.3927 -29.9037 -5.2252 -0.0000 0.0000 -1.2236 21.2543 -25.3160 -9.4433 -7.1250 0.0000 -0.0000 -5.0786 3.1606 4.8101 0.0000 0.0000 0.0000 84.0925 -1.3343 35.9270 -20.0408 30.6915 -5.5522 0.0000 -0.0000 -7.1773 -12.1510 -31.5914 6.4354 7.1250 -0.0000 -0.0000 22.9446 -60.6712 -9.0404
1.3466 16.6370 -1.2024 259.4990 103.4550 259.9400 0.0000 0.0000 0.0000 -37.0356 6.5667 12.5170 0.2480 3.2047 8.8493 1.1376 -10.2310 -19.3016 0.1094 -2.1325 -5.8719 0.0000 0.0000 0.0000 2.0730 2.7077 -26.7445 -0.3114 -3.5876 9.9193 -0.3469 3.3584 -10.4780 -0.2312 -3.0945 8.5419 -15.0815 0.5171 4.2597 -3.2115 1.0758 7.2115 5.0043 0.0186 5.2081 3.6744 1.3088 -22.8861 2.6950 -0.0098 18.2823 0.3475 0.6085 9.5651 0.0000 0.0000 0.0000 -82.5013 -15.2839 51.9373 19.2574 -29.7373 -5.1579 -0.0000 0.0000 -1.1620 21.3361 -25.3194 -9.4836 -7.1250 0.0000 -0.0000 -5.0293 3.1425 4.7647 0.0000 0.0000 0.0000 84.3093 -1.4294 35.0491 -20.0431 30.6942 -5.5533 0.0000 -0.0000 -7.2276 -11.9544 -32.3438 6.4625 7.1250 -0.0000 -0.0000 23.8074 -61.3057 -9.7634
